<svg xmlns="http://www.w3.org/2000/svg" width="579" height="258" viewBox="0 0 579 258"><rect width="579" height="258" fill="#14161C"/><defs><clipPath id="a17_0"><rect x="-142.6" y="57.36" width="904.8" height="38.97"/></clipPath><clipPath id="a17_1"><rect x="-142.6" y="109.58" width="904.8" height="38.97"/></clipPath><clipPath id="a17_2"><rect x="-142.6" y="161.79" width="904.8" height="38.97"/></clipPath></defs><g clip-path="url(#a17_0)"><path d="M137.96 202.96Q122.16 202.96 108.66 197.46Q95.16000000000001 191.96 85.06 181.96Q74.96000000000001 171.96 69.36000000000001 158.66000000000003Q63.760000000000005 145.36 63.760000000000005 129.96000000000004Q63.760000000000005 114.56000000000002 69.36000000000001 101.26000000000002Q74.96000000000001 87.96000000000001 84.96000000000001 78.16000000000001Q94.96000000000001 68.36000000000001 108.46000000000001 62.860000000000014Q121.96000000000001 57.360000000000014 137.76000000000002 57.360000000000014Q154.56 57.360000000000014 167.66000000000003 62.76000000000002Q180.76000000000002 68.16000000000003 190.56000000000003 77.56000000000002L169.56 98.76000000000002Q163.96 92.76000000000002 156.06 89.36000000000001Q148.16000000000003 85.96000000000001 137.76000000000002 85.96000000000001Q128.56 85.96000000000001 120.86000000000001 89.06Q113.16000000000001 92.16000000000001 107.66000000000001 97.96000000000001Q102.16000000000001 103.76000000000002 99.06 111.96000000000001Q95.96000000000001 120.16000000000001 95.96000000000001 129.96000000000004Q95.96000000000001 139.96 99.06 148.16000000000003Q102.16000000000001 156.36 107.66000000000001 162.16000000000003Q113.16000000000001 167.96 120.86000000000001 171.16000000000003Q128.56 174.36 137.76000000000002 174.36Q148.56 174.36 156.56 170.96Q164.56 167.56 170.36 161.56L191.56000000000003 182.76000000000002Q181.36 192.16000000000003 168.26000000000002 197.56Q155.16000000000003 202.96 137.96 202.96Z M263.76000000000005 200.76000000000002V176.36H296.96000000000004Q306.16 176.36 311.36 170.96Q316.56000000000006 165.56 316.56000000000006 157.76000000000002Q316.56000000000006 152.36 314.1600000000001 148.16000000000003Q311.76000000000005 143.96 307.46000000000004 141.56Q303.16 139.16000000000003 296.96000000000004 139.16000000000003H263.76000000000005V115.36000000000001H294.36Q302.16 115.36000000000001 306.96000000000004 111.46000000000001Q311.76000000000005 107.56000000000002 311.76000000000005 99.56000000000002Q311.76000000000005 91.76000000000002 306.96000000000004 87.86000000000001Q302.16 83.96000000000001 294.36 83.96000000000001H263.76000000000005V59.56H300.36Q313.96000000000004 59.56 323.46000000000004 64.56Q332.96000000000004 69.56 337.96000000000004 77.96000000000001Q342.96000000000004 86.36000000000001 342.96000000000004 96.56000000000002Q342.96000000000004 109.56000000000002 334.56000000000006 118.56000000000002Q326.16 127.56000000000002 309.76000000000005 130.96000000000004L310.56000000000006 120.36000000000001Q328.36 123.76000000000002 338.06000000000006 134.16000000000003Q347.76000000000005 144.56 347.76000000000005 159.76000000000002Q347.76000000000005 171.36 342.06000000000006 180.66000000000003Q336.36 189.96 325.66 195.36Q314.96000000000004 200.76000000000002 299.96000000000004 200.76000000000002ZM239.76000000000002 200.76000000000002V59.56H270.76000000000005V200.76000000000002Z M388.36 200.76000000000002 444.36 59.56H472.76L528.1600000000001 200.76000000000002H494.96000000000004L452.56 83.56000000000002H463.96000000000004L420.96000000000004 200.76000000000002ZM420.16 175.16000000000003V149.56H497.16V175.16000000000003Z" fill="#FFFFFF"/></g><g clip-path="url(#a17_1)"><path d="M137.96 202.96Q122.16 202.96 108.66 197.46Q95.16000000000001 191.96 85.06 181.96Q74.96000000000001 171.96 69.36000000000001 158.66000000000003Q63.760000000000005 145.36 63.760000000000005 129.96000000000004Q63.760000000000005 114.56000000000002 69.36000000000001 101.26000000000002Q74.96000000000001 87.96000000000001 84.96000000000001 78.16000000000001Q94.96000000000001 68.36000000000001 108.46000000000001 62.860000000000014Q121.96000000000001 57.360000000000014 137.76000000000002 57.360000000000014Q154.56 57.360000000000014 167.66000000000003 62.76000000000002Q180.76000000000002 68.16000000000003 190.56000000000003 77.56000000000002L169.56 98.76000000000002Q163.96 92.76000000000002 156.06 89.36000000000001Q148.16000000000003 85.96000000000001 137.76000000000002 85.96000000000001Q128.56 85.96000000000001 120.86000000000001 89.06Q113.16000000000001 92.16000000000001 107.66000000000001 97.96000000000001Q102.16000000000001 103.76000000000002 99.06 111.96000000000001Q95.96000000000001 120.16000000000001 95.96000000000001 129.96000000000004Q95.96000000000001 139.96 99.06 148.16000000000003Q102.16000000000001 156.36 107.66000000000001 162.16000000000003Q113.16000000000001 167.96 120.86000000000001 171.16000000000003Q128.56 174.36 137.76000000000002 174.36Q148.56 174.36 156.56 170.96Q164.56 167.56 170.36 161.56L191.56000000000003 182.76000000000002Q181.36 192.16000000000003 168.26000000000002 197.56Q155.16000000000003 202.96 137.96 202.96Z M263.76000000000005 200.76000000000002V176.36H296.96000000000004Q306.16 176.36 311.36 170.96Q316.56000000000006 165.56 316.56000000000006 157.76000000000002Q316.56000000000006 152.36 314.1600000000001 148.16000000000003Q311.76000000000005 143.96 307.46000000000004 141.56Q303.16 139.16000000000003 296.96000000000004 139.16000000000003H263.76000000000005V115.36000000000001H294.36Q302.16 115.36000000000001 306.96000000000004 111.46000000000001Q311.76000000000005 107.56000000000002 311.76000000000005 99.56000000000002Q311.76000000000005 91.76000000000002 306.96000000000004 87.86000000000001Q302.16 83.96000000000001 294.36 83.96000000000001H263.76000000000005V59.56H300.36Q313.96000000000004 59.56 323.46000000000004 64.56Q332.96000000000004 69.56 337.96000000000004 77.96000000000001Q342.96000000000004 86.36000000000001 342.96000000000004 96.56000000000002Q342.96000000000004 109.56000000000002 334.56000000000006 118.56000000000002Q326.16 127.56000000000002 309.76000000000005 130.96000000000004L310.56000000000006 120.36000000000001Q328.36 123.76000000000002 338.06000000000006 134.16000000000003Q347.76000000000005 144.56 347.76000000000005 159.76000000000002Q347.76000000000005 171.36 342.06000000000006 180.66000000000003Q336.36 189.96 325.66 195.36Q314.96000000000004 200.76000000000002 299.96000000000004 200.76000000000002ZM239.76000000000002 200.76000000000002V59.56H270.76000000000005V200.76000000000002Z M388.36 200.76000000000002 444.36 59.56H472.76L528.1600000000001 200.76000000000002H494.96000000000004L452.56 83.56000000000002H463.96000000000004L420.96000000000004 200.76000000000002ZM420.16 175.16000000000003V149.56H497.16V175.16000000000003Z" fill="#F2B705"/></g><g clip-path="url(#a17_2)"><path d="M137.96 202.96Q122.16 202.96 108.66 197.46Q95.16000000000001 191.96 85.06 181.96Q74.96000000000001 171.96 69.36000000000001 158.66000000000003Q63.760000000000005 145.36 63.760000000000005 129.96000000000004Q63.760000000000005 114.56000000000002 69.36000000000001 101.26000000000002Q74.96000000000001 87.96000000000001 84.96000000000001 78.16000000000001Q94.96000000000001 68.36000000000001 108.46000000000001 62.860000000000014Q121.96000000000001 57.360000000000014 137.76000000000002 57.360000000000014Q154.56 57.360000000000014 167.66000000000003 62.76000000000002Q180.76000000000002 68.16000000000003 190.56000000000003 77.56000000000002L169.56 98.76000000000002Q163.96 92.76000000000002 156.06 89.36000000000001Q148.16000000000003 85.96000000000001 137.76000000000002 85.96000000000001Q128.56 85.96000000000001 120.86000000000001 89.06Q113.16000000000001 92.16000000000001 107.66000000000001 97.96000000000001Q102.16000000000001 103.76000000000002 99.06 111.96000000000001Q95.96000000000001 120.16000000000001 95.96000000000001 129.96000000000004Q95.96000000000001 139.96 99.06 148.16000000000003Q102.16000000000001 156.36 107.66000000000001 162.16000000000003Q113.16000000000001 167.96 120.86000000000001 171.16000000000003Q128.56 174.36 137.76000000000002 174.36Q148.56 174.36 156.56 170.96Q164.56 167.56 170.36 161.56L191.56000000000003 182.76000000000002Q181.36 192.16000000000003 168.26000000000002 197.56Q155.16000000000003 202.96 137.96 202.96Z M263.76000000000005 200.76000000000002V176.36H296.96000000000004Q306.16 176.36 311.36 170.96Q316.56000000000006 165.56 316.56000000000006 157.76000000000002Q316.56000000000006 152.36 314.1600000000001 148.16000000000003Q311.76000000000005 143.96 307.46000000000004 141.56Q303.16 139.16000000000003 296.96000000000004 139.16000000000003H263.76000000000005V115.36000000000001H294.36Q302.16 115.36000000000001 306.96000000000004 111.46000000000001Q311.76000000000005 107.56000000000002 311.76000000000005 99.56000000000002Q311.76000000000005 91.76000000000002 306.96000000000004 87.86000000000001Q302.16 83.96000000000001 294.36 83.96000000000001H263.76000000000005V59.56H300.36Q313.96000000000004 59.56 323.46000000000004 64.56Q332.96000000000004 69.56 337.96000000000004 77.96000000000001Q342.96000000000004 86.36000000000001 342.96000000000004 96.56000000000002Q342.96000000000004 109.56000000000002 334.56000000000006 118.56000000000002Q326.16 127.56000000000002 309.76000000000005 130.96000000000004L310.56000000000006 120.36000000000001Q328.36 123.76000000000002 338.06000000000006 134.16000000000003Q347.76000000000005 144.56 347.76000000000005 159.76000000000002Q347.76000000000005 171.36 342.06000000000006 180.66000000000003Q336.36 189.96 325.66 195.36Q314.96000000000004 200.76000000000002 299.96000000000004 200.76000000000002ZM239.76000000000002 200.76000000000002V59.56H270.76000000000005V200.76000000000002Z M388.36 200.76000000000002 444.36 59.56H472.76L528.1600000000001 200.76000000000002H494.96000000000004L452.56 83.56000000000002H463.96000000000004L420.96000000000004 200.76000000000002ZM420.16 175.16000000000003V149.56H497.16V175.16000000000003Z" fill="#FFFFFF"/></g></svg>